<svg width="68" height="64" viewBox="0 0 68 64" fill="none" xmlns="http://www.w3.org/2000/svg">
<g clip-path="url(#clip0_61_265)">
<path d="M42.1531 9.07037C42.9998 8.91837 43.8104 8.88104 44.5218 8.88104C45.0618 8.88104 45.6711 9.07037 46.3458 9.56237C47.0904 10.0917 47.4618 10.6977 47.4618 11.3037C47.4618 13.9157 46.5844 16.6017 45.0951 19.5544C43.2698 23.151 40.8351 26.8597 37.6224 26.8597C37.4524 26.8597 37.2831 26.8597 37.1151 26.8217C35.9638 26.671 35.2884 25.687 35.2884 24.9297C35.2884 24.8544 35.3224 24.8164 35.3224 24.7397C34.3404 23.983 33.1584 22.8097 32.7524 21.8644C33.2591 22.4684 34.7478 23.5284 35.7631 24.0584C34.7811 23.3017 33.3944 21.9764 32.9544 20.9177C33.4964 21.6364 35.3904 22.9604 36.4044 23.3017C35.3231 22.6964 33.7671 21.4084 33.2591 20.3124C34.3078 21.409 35.8978 22.2424 37.3184 22.2797C39.0431 22.1277 40.2931 21.4084 41.5444 19.6297C42.4584 18.2664 43.1684 16.9424 43.6098 15.655C43.9458 14.709 44.1164 13.8004 44.1491 12.855C43.8444 12.665 43.3051 12.589 42.5604 12.589C42.4251 12.589 42.2904 12.589 42.1544 12.627C41.9184 12.779 41.5451 13.233 41.1404 13.233C41.0718 13.233 41.0391 13.195 40.9711 13.195C40.7344 13.1197 40.5651 12.7784 40.5651 12.475C40.5651 12.3617 40.5651 12.2484 40.6331 12.135C40.3971 12.0597 39.9571 11.8697 39.8904 11.4157C39.8558 11.3397 39.8558 11.227 39.8558 11.151C39.8558 10.7737 40.0251 10.4324 40.3978 10.2044C40.2951 10.0524 40.2624 9.9017 40.2624 9.75104C40.2624 9.29637 40.6004 8.80437 41.0398 8.57637C40.7691 7.8577 40.2951 7.25237 39.1124 7.02504C40.5658 7.02504 41.0724 7.70637 41.4124 8.3877C41.2764 7.8577 40.9378 7.36637 40.2271 6.8737C41.5464 7.40304 42.0211 8.27504 42.1231 9.03037L42.1531 9.07037ZM54.3631 12.8177C53.9218 12.6664 53.5504 12.6284 53.2811 12.6284C52.9071 12.6284 52.6364 12.7424 52.4338 13.0077C52.4684 14.0284 53.1791 15.5804 54.5304 17.6257C55.7824 19.5177 56.8644 20.8804 57.8111 21.6004C58.2511 21.941 58.6238 22.1677 58.9958 22.357C59.2324 22.395 59.4684 22.4324 59.7044 22.4324C61.4644 22.4324 63.4251 21.2217 65.0151 19.7824C64.1364 21.1077 61.7691 22.6977 60.1778 23.4917C61.6331 23.037 64.4731 21.4097 65.3864 20.5397C64.6078 21.865 62.4771 23.4917 60.9224 24.361C62.4431 23.757 64.7104 22.431 65.4878 21.675C64.7778 22.8484 62.9511 24.3244 61.4644 25.233C61.3958 25.4604 60.8218 26.8977 59.7391 27.4664C59.5364 27.5804 59.2991 27.6184 59.0631 27.6184C58.7911 27.6184 58.4878 27.543 58.1831 27.4284C57.0998 27.1264 55.6804 25.6117 53.9564 22.9624C52.5698 20.805 51.4538 18.8737 50.6751 17.0584C49.5944 14.6357 49.0511 12.705 49.0511 11.305C49.0511 10.2444 49.7611 9.4497 51.2504 8.9197C51.7238 8.7297 52.1971 8.61704 52.7038 8.54237C52.8051 8.35237 52.9758 8.23904 53.1444 8.16304C52.9758 7.4057 52.6711 6.76237 51.7238 6.3837C52.8744 6.5357 53.2451 7.29237 53.4484 8.0117C53.3818 7.44304 53.1791 6.9137 52.6358 6.3457C53.3138 6.8377 53.6164 7.4057 53.7184 7.9357H53.8538C54.0238 7.9357 54.1591 7.9737 54.2931 8.12437C54.4964 7.78437 54.6991 7.6337 54.9364 7.6337C55.0378 7.6337 55.1391 7.6717 55.2411 7.70904C55.6471 7.86037 55.7138 8.61704 55.7138 8.76904C56.3571 8.84437 56.5938 9.29904 56.5938 9.86637C56.5938 10.055 56.5598 10.245 56.5258 10.435C56.4918 10.5464 55.3758 12.4017 54.3631 12.8177Z" fill="#E50012"/>
<path d="M43.0325 44.7839L43.0071 44.1352C43.0071 41.9792 43.3778 40.4645 43.4125 40.4265C43.9205 40.3512 44.4265 40.3132 44.6298 39.8585C44.5285 39.9719 44.3925 40.0099 44.2558 40.0099C43.9525 40.0099 43.6825 39.8585 43.6478 39.8212C44.2558 39.6312 44.6965 39.0265 44.6965 38.4579V38.3065C44.4938 39.0639 43.8851 39.3665 43.4791 39.3665C43.3105 39.1025 43.1065 38.8745 42.8365 38.6479C42.2958 38.1925 41.7878 38.0032 41.2811 38.0032C40.8418 38.1925 40.5031 38.3819 40.1978 38.5339L39.6578 38.4579C39.6578 37.7012 39.6578 37.1712 39.7258 36.8679C39.7938 36.5279 40.3678 35.3159 40.3678 35.3159C40.4025 35.1645 40.4358 35.0139 40.4358 34.8625C40.4358 34.2932 40.1651 33.8779 39.4891 33.8779C39.4891 33.7259 39.3878 33.0825 38.9818 32.9692C38.9145 32.9692 38.8811 32.9319 38.8118 32.9319C38.5425 32.9319 38.3038 33.0825 38.1358 33.4612C38.0358 33.3479 37.9338 33.3092 37.7971 33.3092C37.7631 33.3092 37.6951 33.3092 37.6291 33.3479C37.4931 32.8565 37.0871 32.2505 36.4458 32.0605C36.9865 32.4765 37.2225 32.9685 37.3245 33.4232C37.0878 32.8179 36.6811 32.2119 35.6331 32.1745C36.5125 32.4012 36.8505 32.9685 37.0538 33.5745C36.8165 33.7265 36.4798 34.4452 36.4458 34.5592C36.4798 34.7485 36.5798 35.1272 36.7831 35.6565C36.9865 36.1485 37.0878 36.5652 37.0878 36.8672V38.7605L35.7351 38.8739C35.3625 38.6472 35.0245 38.4965 34.7205 38.4965C34.5851 38.4965 34.4505 38.5339 34.3491 38.5719C34.3151 38.4965 34.2478 38.4192 34.1791 38.3819C33.8745 37.7012 33.3678 37.2465 32.3865 37.0565C33.3005 37.5125 33.6718 38.0032 33.8418 38.5719C33.4358 38.7985 33.1651 39.2525 33.1651 39.7072C33.1651 39.8959 33.1991 40.0485 33.3005 40.1992C32.9285 40.4632 32.7585 40.8045 32.7585 41.1839C32.7585 41.2592 32.7925 41.3725 32.7925 41.4479C32.8938 42.0159 33.5371 42.1665 33.6711 42.2052C33.6038 42.3179 33.5698 42.4325 33.5698 42.5832C33.5698 42.6965 33.6045 42.8105 33.6385 42.9232C33.5698 43.3779 33.5378 43.8712 33.4698 44.4752C33.3345 45.6499 33.2331 46.5572 33.2331 47.2019C33.2331 48.4125 33.6385 49.2832 34.4171 49.7372C35.1951 48.9419 35.6678 47.5419 35.7691 45.5745L36.0058 41.9019C36.3431 41.8632 36.6138 41.8259 36.8831 41.8259C36.7491 44.6659 36.7151 49.0565 36.7151 55.0365C36.7151 56.4752 37.0538 57.6485 37.7291 58.5939C38.6091 57.8372 39.1158 56.3246 39.3531 54.0519C39.3871 53.5612 39.4211 51.8192 39.4211 48.9032V41.7125C39.8271 41.7125 40.1978 41.7125 40.5031 41.7885C40.4691 42.8112 40.4351 43.6065 40.4351 44.0985C40.4351 47.0505 40.7738 48.6026 41.4165 48.7925C41.7878 48.7532 42.1265 48.5272 42.3625 48.1479L42.5931 47.5085C42.9365 46.4252 42.9718 45.9899 43.0465 44.3812C43.0338 44.3892 43.0458 44.7759 43.0325 44.7839Z" fill="#E50012"/>
<path d="M61.6785 55.3029C62.4079 54.9249 63.1652 54.4702 63.5052 54.1682C63.1392 54.7362 62.3305 55.4169 61.5732 55.9082C61.4432 56.0969 61.2852 56.3256 61.0512 56.5142C60.9199 56.8922 60.6332 57.4222 60.2152 57.5736C60.0585 57.6122 59.9012 57.6122 59.7452 57.6122H59.4052C59.0665 57.5736 58.6752 57.4602 58.2565 57.3476C56.8732 56.9696 55.1759 56.8562 53.1392 56.8562C51.4425 56.8562 50.2152 56.8936 49.4579 56.9696C47.8405 57.1582 46.6905 57.5369 46.0119 58.1429C45.0719 57.8789 44.6279 57.1582 44.6279 56.0616C45.0979 54.4702 45.3332 52.5016 45.3332 50.0422C45.3332 49.7009 45.1759 49.2849 44.8632 48.7182C44.8632 48.1129 45.2032 47.5069 45.9072 47.0516L47.0559 47.4302C49.1179 47.0136 51.1025 46.7869 53.0092 46.7489C52.3565 46.5596 51.8599 45.4616 51.8599 43.3796V43.2282L50.4252 43.3036L48.9365 45.6509C48.2319 46.5962 47.5785 47.0882 46.9252 47.1642C46.7952 46.8236 46.7439 46.5209 46.7439 46.2569C46.7439 45.9916 47.0045 45.1216 47.5005 43.7202L44.9672 44.5916C44.4992 44.7429 43.8712 45.1596 43.4272 45.1596H43.2705C43.0365 45.0069 42.9052 44.7429 42.9052 44.4396C42.9052 44.2882 42.9312 44.1756 42.9579 44.0609C42.6959 43.9109 42.5925 43.4556 42.5925 43.1909C42.6185 42.7756 42.8012 42.5096 43.2185 42.4342C43.1905 42.3589 43.1905 42.3196 43.1905 42.2442C43.1905 41.7896 43.5845 41.4502 44.0532 41.4122C44.0272 41.1469 43.8445 40.8069 43.5065 40.3902C43.9232 40.6922 44.1579 41.0336 44.3139 41.4122V41.3742C44.3139 41.2222 44.1852 40.9576 44.0272 40.6922C44.3665 40.9576 44.5239 41.2616 44.5759 41.5636C44.7845 41.6382 44.9925 41.7522 45.2285 41.9042C47.8405 41.0716 50.0845 40.5796 51.9385 40.3902L51.9912 37.5142C51.9912 37.5142 51.9125 37.1729 51.8085 36.7562C50.8165 36.9836 49.8499 37.1342 49.0405 37.1729H48.9885C48.5972 37.1729 47.5525 36.8696 47.3439 36.5296C46.9519 36.4916 46.6132 36.4162 46.4825 36.0376C46.5859 36.1889 46.6905 36.2642 46.7952 36.2642C46.9252 36.2642 47.0839 36.1509 47.2125 36.1129V36.0376C46.7685 35.7722 46.4045 35.2802 46.4045 34.7882V34.6356C46.6132 35.4702 47.1605 35.6962 47.3699 35.6962C47.5785 35.3929 47.9699 35.1662 48.5452 35.0156L49.3279 34.8642C50.2672 34.6356 54.8119 33.1596 55.3072 32.7069C55.3845 32.4416 55.5412 32.2142 55.7259 32.1016C55.5685 31.4582 55.2559 30.9649 54.4979 30.6996C55.4119 30.7376 55.7512 31.3436 55.9859 31.9489C55.8812 31.4582 55.6719 31.0402 55.2019 30.5869C55.8552 30.8889 56.0632 31.4189 56.1939 31.8356C56.2459 31.8356 56.2979 31.7976 56.3512 31.7976C56.4539 31.7976 56.5585 31.8356 56.6632 31.9489C56.8199 31.5709 57.0299 31.4582 57.2639 31.4582H57.3945C57.7339 31.6089 57.8385 32.2142 57.8385 32.3656C58.4132 32.4036 58.6465 32.7822 58.6465 33.3116C58.6465 33.3876 58.6219 33.5009 58.6219 33.5762C58.8565 33.7649 58.9365 34.0309 58.9365 34.4096C58.9365 34.7502 58.6992 34.9776 58.1792 35.1662C57.8652 35.2416 57.5779 35.3176 57.2899 35.3176H57.1085C56.2979 35.5822 55.2552 35.9229 54.1305 36.2262C54.2625 36.3402 54.6792 36.9069 54.6792 37.0582V37.2109C54.6792 37.4389 54.6259 37.7409 54.4972 38.1949C54.2092 39.1796 54.2625 39.3689 54.1832 40.3529C57.7605 40.5796 60.5025 40.9209 62.1465 41.2616C62.2765 41.2989 62.4339 41.2989 62.5632 41.2989C63.7392 41.2989 64.9132 40.4282 65.6699 39.9742C64.9925 40.9589 63.8685 41.5642 62.5632 42.0942C63.4512 41.9049 65.2539 41.0722 65.8539 40.5422C65.3059 41.3376 63.9479 42.2456 62.9559 42.7389C63.9225 42.4736 65.3579 41.7529 65.8539 41.2996C65.3579 42.0569 64.1832 42.8896 63.2432 43.3809C63.2432 43.4196 62.8772 44.8576 62.1732 45.0082H61.9385C61.5725 44.9709 61.1552 44.7442 60.6599 44.5176L60.4505 44.4029C59.7712 44.1009 59.2759 43.8742 58.9612 43.7982C59.0665 44.1009 59.1965 44.3656 59.3279 44.7062C59.4325 45.0082 59.4845 45.3116 59.4845 45.6529C59.4845 45.9169 59.4052 46.1829 59.2485 46.4849C59.1452 46.5229 59.0672 46.5229 58.9872 46.5229C58.4659 46.5229 57.8659 46.1449 57.2385 45.2736C56.7685 44.6689 56.3259 43.9862 55.8812 43.3056L54.1839 43.2682C54.1579 43.7602 54.1579 44.4409 54.1579 44.6309C54.1579 45.4629 53.6885 46.1829 53.0885 46.7502C53.2179 46.7129 53.3759 46.7129 53.5319 46.7129C55.9605 46.7129 57.9432 46.9769 59.4852 47.4696C59.8759 47.1662 60.1625 47.0529 60.3725 47.0529C60.6612 47.0529 60.9465 47.1662 61.2339 47.4696L61.9125 48.3022C61.9125 48.5296 61.8612 48.6809 61.8085 48.8696C61.7292 49.0596 61.6519 49.2109 61.5739 49.4389C61.4959 49.6276 61.4439 49.8176 61.4439 50.0069C61.4439 50.0449 61.5219 51.4069 61.6259 54.0189C62.2005 53.8302 62.7485 53.4516 63.2705 52.9969C62.9572 53.4896 62.3045 53.9816 61.6512 54.4356V54.5876C62.3832 54.2469 63.1399 53.7929 63.4525 53.4902C63.1139 54.0196 62.3832 54.6642 61.6792 55.1549L61.6785 55.3029ZM46.7679 40.8816C46.5072 40.5029 46.3252 39.8216 46.3252 39.2542C46.3252 38.7996 46.8212 37.5509 47.1085 37.4376C47.8139 37.5509 48.4659 37.6262 49.1705 37.8916C50.0319 38.1936 50.4765 38.6096 50.6065 38.9889C50.3452 39.3676 49.8745 39.7462 49.1445 40.0876C48.9885 40.2009 47.1352 40.8816 46.8219 40.8816H46.7679ZM52.0419 52.9569C51.8079 52.8809 51.4425 52.8429 50.9185 52.8429C49.2219 52.8429 47.9952 52.9942 47.2379 53.1842C47.1345 53.6389 47.0552 54.0916 47.0299 54.5849C48.3865 54.2442 50.0572 54.0542 52.0412 54.0542V52.9569H52.0419ZM52.0692 50.0796C52.0692 49.9282 52.0425 49.7762 52.0159 49.7009L51.4172 49.3989C50.2159 49.3989 48.8845 49.5502 47.4479 49.8156C47.4745 49.8909 47.4745 50.0042 47.4745 50.0422C47.4745 50.3062 47.4479 50.5342 47.4219 50.8369C48.9105 50.6476 50.4772 50.5342 52.0699 50.4576V50.0796H52.0692ZM57.3439 50.5716C57.5525 50.6096 57.7612 50.6469 57.9952 50.6469C58.4659 50.6469 58.9872 50.5336 59.5105 50.3056C59.4845 50.0416 59.4845 49.8902 59.4845 49.8902C58.1799 49.4736 56.7159 49.2456 55.0972 49.2456C54.7845 49.2456 54.4979 49.2842 54.2879 49.3222L54.2359 50.4196C54.4179 50.4562 55.3065 50.4942 56.8465 50.5709H57.3179L57.3439 50.5716ZM57.1085 53.1082C57.0565 53.1082 57.0039 53.1449 56.9252 53.1449C56.8732 53.1449 56.8205 53.1082 56.7439 53.1082C56.0632 53.0322 55.5679 52.9936 55.2299 52.9936C54.8885 52.9936 54.5759 52.9936 54.2365 53.0322V54.0162C54.5252 54.0542 54.9425 54.0916 55.4399 54.0916H56.6645C57.7892 54.1682 58.7539 54.2802 59.5899 54.3949C59.5639 54.0162 59.5379 52.5016 59.5119 51.3662C59.1192 51.7076 58.5199 52.0096 58.0499 52.1996C58.0499 52.2376 57.6839 53.0696 57.2399 53.1082H57.1085ZM57.8392 36.9449C57.9945 36.4536 58.4919 36.2256 59.3532 36.2256C60.4239 36.9062 61.0245 37.7776 61.1292 38.9129C60.7645 39.3676 60.3452 39.5936 59.9012 39.5936C59.7452 39.5936 59.5365 39.5556 59.2239 39.5556C58.9365 39.5176 58.6992 39.5176 58.5712 39.5176C58.3612 39.5176 58.0479 39.5556 57.6292 39.5929C57.2379 39.6309 56.9245 39.6689 56.7152 39.6689C56.4292 39.6689 56.1159 39.5929 55.7505 39.5169C55.7759 39.0256 56.0632 38.5329 56.5859 38.0402L57.8392 36.9449ZM59.5105 50.4209C58.9872 50.7982 58.2312 51.1016 57.6825 51.2522C58.1519 51.2149 58.9612 50.9882 59.5105 50.7229V50.4209ZM59.5105 50.8756C59.0405 51.2522 58.3865 51.5562 57.9165 51.7456C58.3865 51.6702 59.0665 51.4422 59.5105 51.2156V50.8756Z" fill="#E50012"/>
<path d="M30.7045 15.1419C30.7045 15.8626 30.3318 16.7706 29.4191 16.9986C29.3178 17.0359 29.1825 17.0359 29.0465 17.0359C28.0985 17.0359 26.4085 16.4299 26.1391 16.3546C24.7518 15.9773 23.9398 15.7866 23.7045 15.7493C22.5531 15.5226 20.7958 15.4086 18.3598 15.4086C16.2971 15.4086 14.1338 15.5979 11.9345 15.9393C9.26381 16.3546 7.43847 16.9239 6.45514 17.6786C6.15181 18.0206 5.81247 18.4366 5.47447 18.4366C5.40647 18.4366 5.37447 18.4366 5.30581 18.3986C5.20514 18.3233 5.06981 18.0959 5.06981 17.8306C5.06981 17.6779 5.10381 17.5653 5.17114 17.4139C5.03581 17.4139 4.39247 17.2253 4.29247 16.6946C4.25847 16.6199 4.25847 16.5053 4.25847 16.4299C4.25847 16.0899 4.42714 15.7866 4.76514 15.5599C4.69714 15.4079 4.63047 15.2566 4.63047 15.1046C4.63047 14.6506 4.93447 14.1966 5.37447 13.9693C5.20514 13.4779 4.79914 12.9853 3.85181 12.5686C4.86647 12.7579 5.40714 13.2493 5.71181 13.8939C5.84647 13.8553 6.11781 13.7793 6.42181 13.7793H6.55781L6.99647 14.1959C8.21447 13.7793 9.76847 13.4019 11.6985 13.0606L11.7985 11.5466C11.7985 11.2066 11.6985 10.8279 11.4598 10.4113C11.2565 9.99595 11.1565 9.65461 11.1565 9.42661C11.1565 9.16261 11.2565 8.93461 11.4271 8.70795H11.8331C12.3391 8.70795 12.8798 8.78461 13.5558 9.01061C14.0978 9.19995 14.4685 9.42661 14.6391 9.69195C15.0451 9.69195 15.6198 9.38928 15.8225 8.63195V8.78461C15.8225 9.38928 15.3485 9.95728 14.7065 10.2219C14.7065 10.2219 14.9765 10.4106 15.2818 10.4106C15.4498 10.4106 15.6191 10.3353 15.7545 10.1833C15.5838 10.6379 15.0451 10.7519 14.6038 10.7519H14.4351C14.4351 10.7519 14.1318 11.2819 14.1318 11.5459V11.5839L14.1645 12.8713L16.4991 12.7193C16.4991 12.0006 16.4651 10.9026 16.4311 9.50195C16.4311 9.27528 16.2278 8.97195 15.8891 8.55661C15.5511 8.10195 15.3825 7.79861 15.3825 7.57195C15.3825 7.30795 15.9238 6.43661 16.4311 6.05795C16.2278 5.41461 15.8558 4.88461 14.9431 4.65795C16.0578 4.69595 16.4651 5.26195 16.7011 5.86795C16.5991 5.41395 16.3625 4.95995 15.7885 4.54395C16.4991 4.77128 16.8365 5.33728 16.9711 5.79195C17.0385 5.79195 17.1078 5.75461 17.1758 5.75461C17.2758 5.75461 17.4118 5.79195 17.5125 5.90661C17.6825 5.56528 17.9185 5.41461 18.1558 5.41461C18.2238 5.41461 18.3251 5.41461 18.3918 5.45261C18.7978 5.52795 18.9331 6.17261 18.9331 6.32395C19.6105 6.32395 19.8805 6.73928 19.8805 7.27061C19.8805 7.42128 19.8465 7.57261 19.8131 7.72395L19.6771 8.70861C20.0491 8.70861 20.6245 8.67061 21.4018 8.63328C22.2131 8.55795 22.7898 8.55795 23.1945 8.55795H23.9711C24.8185 8.48195 27.0158 7.91395 28.4358 6.81595C27.7931 7.64928 26.0698 8.67128 24.9185 9.16328C25.9678 8.85995 28.0645 7.83861 28.7065 7.27128C28.1311 8.14128 26.5765 9.16328 25.4611 9.73061C26.5765 9.31395 28.2338 8.48128 28.8085 7.98928C28.2678 8.78528 26.9491 9.69328 25.8671 10.2986C25.8671 10.8286 25.4271 11.5093 24.6498 11.6999C24.5478 11.7373 24.4131 11.7373 24.2771 11.7373C23.7365 11.7373 22.9918 11.5099 22.3838 11.2833C21.6745 11.2453 20.9625 11.2453 20.1845 11.2453C19.9478 11.2453 19.7458 11.2453 19.5425 11.2833L19.5765 12.4939C21.0638 12.4939 22.8918 12.6073 25.0551 12.7959C26.4071 12.9106 27.5565 13.0239 28.4711 13.1373C28.7071 13.1753 28.9778 13.1753 29.2491 13.1753C30.7358 13.1753 32.2911 12.7206 33.4425 11.8886C32.3945 13.0619 31.5145 13.6306 30.2965 14.2353C31.3111 14.1219 32.2245 13.5919 33.3418 12.6453C32.7651 13.7426 31.1765 14.6519 30.7025 15.0293V15.1419H30.7045ZM27.6938 28.8073C29.0131 28.4293 30.7045 27.7486 31.3465 27.2553C30.6365 28.1266 28.9791 29.1106 27.6605 29.6786C27.5251 30.3979 27.0518 31.2686 26.0725 31.4586C25.9705 31.4586 25.9025 31.4959 25.7998 31.4959C24.9898 31.4959 23.8391 31.1173 23.1971 30.9653C21.6765 30.7766 20.0511 30.6633 18.2598 30.6633C15.6558 30.6633 13.9658 30.7013 13.2198 30.7766C12.0018 30.8899 10.8858 31.1173 9.84047 31.4586C9.80581 31.8359 9.63581 32.1766 9.39914 32.2906C9.29781 32.3286 9.19581 32.3659 9.12847 32.3659C8.85914 32.3659 8.62181 32.1766 8.48647 31.9873C8.24981 32.1766 7.91114 32.3286 7.60714 32.3286C7.36981 32.3286 7.16781 32.2533 6.99847 32.1006C6.76181 31.9113 6.62647 31.6473 6.62647 31.3439C6.62647 31.2306 6.66114 31.1546 6.69381 31.0406C6.45714 30.9279 6.35647 30.7006 6.32181 30.4353C6.28647 30.3593 6.28647 30.2459 6.28647 30.1319C6.28647 29.8673 6.35581 29.6026 6.45581 29.3386C6.69247 28.8073 6.82847 28.3913 6.82847 28.0133C6.82847 27.5966 6.69314 27.2553 6.35581 26.8779C6.86247 27.1046 7.20047 27.5213 7.20047 28.3546C7.20047 28.4673 7.16714 28.6186 7.16714 28.7319L7.26847 28.5046C7.30114 28.2773 7.33647 28.0886 7.33647 27.8999C7.33647 27.2553 7.06581 26.8026 6.55914 26.4233C7.16714 26.5746 7.50647 26.8399 7.64114 27.4833C7.67514 27.3699 7.67514 27.2933 7.67514 27.2553C7.87847 25.9686 7.94581 23.7733 7.94581 20.5946C7.94581 20.4046 7.80914 20.1393 7.57314 19.7986C7.33647 19.4213 7.23447 19.1559 7.23447 18.9666C7.23447 18.8533 7.26847 18.7013 7.33581 18.5499C7.77581 18.1726 8.14714 17.9826 8.41847 17.9826C8.85781 17.9826 9.33114 18.1346 9.76914 18.4366C10.3111 18.7399 10.6491 19.0806 10.7525 19.4966C10.6838 19.7239 10.6158 20.1773 10.5478 20.8599C10.7185 20.4813 10.9878 20.2159 11.3251 20.0266C11.5958 19.9513 12.0371 19.8373 12.6785 19.7986L16.4671 19.4966V17.7933C16.2305 17.4146 16.1285 17.0746 16.1285 16.6953V16.3546C16.3645 16.0906 16.8378 15.8246 17.5138 15.5979C17.9538 15.7866 18.3598 16.0146 18.7651 16.2033C19.2731 16.5053 19.5778 16.8086 19.6785 17.1499L19.2051 18.2473L19.1038 19.4959C20.1858 19.5726 21.2338 19.6099 22.3158 19.7233C23.7718 19.9126 24.7845 20.2526 25.2925 20.7086C25.1925 20.4433 25.0565 20.1773 24.8865 19.8366C24.8865 18.7773 25.2251 18.0959 25.9018 17.7933C26.3758 17.8686 26.8818 18.1346 27.4905 18.5119C28.1678 18.9286 28.5045 19.3453 28.5045 19.7233C28.5045 19.9126 28.4045 20.1773 28.2351 20.5179C28.0311 20.8593 27.9311 21.0479 27.9311 21.1233C27.9311 21.1613 27.9645 21.2746 28.0311 21.4266C27.9638 21.7673 27.9638 22.7506 27.9638 24.3406C27.9638 25.4006 27.9305 26.3093 27.8958 27.0659C28.9778 26.8393 30.0951 26.3473 31.0758 25.7033C30.4658 26.4226 29.0798 27.1793 27.8291 27.7106V27.8619C29.1138 27.4833 30.7038 26.8019 31.3451 26.3479C30.6351 27.2186 29.0118 28.1653 27.6925 28.7706V28.8073H27.6938ZM18.9011 24.3413C18.8685 25.4386 18.4271 26.4613 17.6158 27.4073C16.7031 26.5746 16.2645 25.4766 16.2645 24.0773V23.2059C16.2645 22.8273 16.2978 22.4866 16.2978 22.2593V22.1446C13.9651 22.2593 12.3405 22.5619 11.3258 23.0546C10.9545 22.8653 10.6498 22.5246 10.4125 21.9946C10.3125 23.0166 10.2438 24.1519 10.1765 25.4006C10.2445 24.9459 10.5158 24.6053 10.9891 24.3406L12.4098 23.8859L14.1005 23.0539C14.4051 22.9026 14.7431 22.8259 15.0478 22.8259C15.1818 22.8259 15.3858 22.8646 15.5871 22.9399C15.6225 23.1293 15.6565 23.3186 15.6565 23.4699C15.6565 24.6046 14.8105 25.7413 13.1205 26.9526C11.5311 26.9526 10.5498 26.6119 10.1445 25.8546C10.1105 26.7266 10.1105 27.3306 10.1105 27.7486V28.1646C11.3605 27.8999 12.8498 27.7486 14.5405 27.6726C14.9798 27.6726 16.5025 27.6339 19.0378 27.6339C21.4731 27.6339 23.4345 27.8239 24.8551 28.1259C25.2945 26.2333 25.5318 24.2273 25.5318 22.1439C25.5318 21.6906 25.4645 21.3119 25.3965 20.9713C25.0245 21.7666 24.2805 22.3339 23.1985 22.6373C22.0825 22.4486 20.7971 22.3339 19.3431 22.3339H19.0385C18.9371 22.5613 18.9031 22.9033 18.9031 23.3193V24.3413H18.9011ZM11.5638 18.2853C11.6311 17.3386 12.0378 16.7333 12.8491 16.5439C14.5725 17.1126 15.6211 17.8313 15.9598 18.7399C15.6211 19.0806 14.9785 19.3079 13.9985 19.3453C13.5578 19.3833 12.8818 19.3833 11.9691 19.5339L11.5638 18.2853ZM22.4865 27.0286C21.7418 26.8019 21.0318 26.3853 20.3551 25.7039C19.5438 24.9466 19.1725 24.2279 19.1725 23.5079C19.1725 23.3199 19.2058 23.0546 19.3071 22.7139C19.8818 22.7893 20.8971 23.0926 22.3165 23.6226C23.7385 24.1139 24.6851 24.5313 25.1578 24.8333C24.9545 25.8546 24.0751 26.5739 22.4865 27.0286ZM24.0418 18.6253C23.5011 18.9666 22.5538 19.1559 21.1671 19.1559C20.6258 19.1559 20.1858 19.0806 19.8151 18.9286C19.7805 18.8153 19.7805 18.6633 19.7805 18.5499C19.7805 17.9446 20.8631 17.1499 23.0951 16.1279C23.4331 16.3546 23.8731 16.7713 24.3471 17.4146C24.3125 17.7926 24.2105 18.2093 24.0418 18.6253Z" fill="#E50012"/>
<path d="M11.6478 50.2136C10.0578 52.1062 9.17852 53.2042 7.96118 54.0756C7.45318 54.4529 6.94718 54.6049 6.44052 54.6049C6.23718 54.6049 6.03452 54.5676 5.83118 54.5289C4.95252 54.2636 4.51185 53.5076 4.44452 52.9402C3.63318 52.2582 2.65252 51.1982 2.28052 50.3656C2.71985 50.8955 3.97118 51.8416 4.85052 52.2962C3.97118 51.6536 2.82052 50.4796 2.44918 49.5329C2.92318 50.1762 4.51185 51.3496 5.35785 51.6536C4.47852 51.0849 3.12452 49.8742 2.71918 48.8896C3.76652 49.9496 5.05185 50.7435 5.99985 50.7822C6.70918 50.5542 9.44918 48.5862 10.7345 47.0722C10.9712 46.7702 11.2765 46.2402 11.6825 45.5969C10.6678 45.7102 9.51852 46.2022 8.73985 46.5436C8.43518 46.7322 8.13052 46.8456 7.85918 47.0722C7.38718 47.3756 7.15052 47.6402 6.91318 47.6402C6.87985 47.6402 6.81185 47.6022 6.77918 47.6022C6.47385 47.4902 6.30452 47.2622 6.30452 46.9589V46.8456C6.06852 46.7322 5.72985 46.4296 5.66185 46.0502V45.8236C5.66185 45.4456 5.79718 45.1802 6.20385 44.9536C6.10252 44.7636 6.06852 44.5742 6.06852 44.3856C6.06852 43.9689 6.27185 43.5516 6.77918 43.3622C6.60918 42.8336 6.23652 42.3402 5.28985 41.8869C6.20318 42.0002 6.91318 42.6436 7.14985 43.2116C7.42052 43.2496 7.72518 43.4382 8.06318 43.6662C8.94118 43.2869 11.0378 42.7202 12.2558 42.3789C12.2558 41.8489 12.1885 41.2816 11.9858 40.7129C10.8372 41.3182 9.88852 41.6209 9.17852 41.6209C8.70585 41.6209 8.23185 41.5076 7.75852 41.2809C7.14985 40.9776 6.81118 40.6369 6.67585 40.1829C6.74518 39.6536 7.18452 39.1989 7.96118 38.9716C10.8372 38.0642 12.7638 37.1176 13.6772 36.0189C13.8125 35.8302 13.9138 35.4889 14.1838 35.3376C13.9472 34.7336 13.5758 34.2036 12.5952 33.9376C13.7785 33.9756 14.2178 34.5822 14.4885 35.1862C14.3872 34.7329 14.1172 34.2409 13.5078 33.8242C14.2518 34.1649 14.5898 34.6189 14.7585 35.1109C14.8272 35.0729 14.8945 35.0729 14.9958 35.0729C15.1305 35.0729 15.2665 35.1109 15.3672 35.1862C15.5365 34.8462 15.8058 34.6949 16.0778 34.6949C16.1458 34.6949 16.2472 34.7336 16.3145 34.7336C16.7532 34.8469 16.8552 35.4522 16.8552 35.6042C17.5658 35.6429 17.9032 36.3982 17.9032 36.8149C17.9032 36.9289 17.9032 37.0042 17.8692 37.0422C17.6325 37.6856 17.0238 38.2916 16.1112 38.7456C15.3325 39.1242 14.5558 39.4269 13.7778 39.8429H13.8118C14.1505 39.9942 14.3518 40.1082 14.4878 40.2216C14.6572 40.3729 14.7925 40.6376 14.8605 40.9782L14.3185 41.7736V42.0756C16.1112 42.3029 17.1598 42.7956 17.4985 43.5142C17.4298 43.9689 17.1598 44.3856 16.7205 44.7629C16.2812 45.1796 15.8405 45.4442 15.4012 45.5962L14.3525 45.4829V45.6342C14.3525 46.0122 14.6578 46.4289 15.2332 46.7696C15.7058 47.0716 16.1798 47.2616 16.6525 47.5649C17.0252 47.7909 17.2958 48.0569 17.4992 48.3589C17.0932 49.6076 16.4852 50.4409 15.6392 50.8182C15.1312 50.6669 14.6578 50.4029 14.1838 49.9862C14.1172 52.7115 14.0838 55.0202 14.0838 56.9136C14.0838 57.8589 13.6778 58.6922 12.8318 59.3729C11.9858 58.9956 11.5812 58.1996 11.5812 57.0262L11.6478 50.2136ZM32.0065 49.9116C32.0065 50.7436 31.3632 51.5389 30.4498 51.5769C29.7058 51.5769 28.9285 51.3882 28.1172 51.1602C27.7785 51.0849 27.5085 51.0469 27.2052 51.0089C27.2385 51.4636 27.2385 52.1062 27.2385 52.9016C27.2385 53.6962 27.2385 54.6422 27.1692 55.7776C27.0692 58.4282 26.4258 59.9416 25.4452 60.3956C24.8712 58.8822 24.5665 56.9136 24.5665 54.4529C24.5665 53.9609 24.5998 52.7876 24.6678 50.8949C22.7405 50.9709 21.3205 51.2355 20.3398 51.6896C20.2718 51.6896 19.7978 51.9929 18.8852 52.5609C18.2758 52.9016 17.7352 53.0896 17.2952 53.1656C17.0585 53.0142 16.8552 52.6742 16.6858 52.1442C16.5845 51.7282 16.5172 51.3489 16.5172 51.0089C16.5172 50.3276 16.6858 49.9116 16.9905 49.6836C17.5658 49.3062 18.7825 48.8516 20.6765 48.3596C22.2325 47.9429 23.5852 47.6016 24.7352 47.4129C24.7352 46.6562 24.7678 45.4449 24.8018 43.7036C24.8372 42.0762 24.8712 40.8642 24.8712 40.0329C24.8712 39.5402 24.7358 39.0482 24.4652 38.5556C24.1945 38.0642 24.0592 37.7229 24.0592 37.5709V37.4576H23.9912C23.8218 37.3436 23.7552 37.0796 23.7552 36.8889C23.7552 36.7382 23.7878 36.6622 23.8218 36.5876C23.8912 36.4736 23.9912 36.3976 24.0912 36.3589V36.2076C24.0912 36.0562 24.1265 35.8676 24.1938 35.7922C24.3645 35.5642 25.2085 35.0342 25.5452 34.9969H25.6145C26.1885 34.9969 27.4065 35.7922 27.8118 36.3209C28.1165 36.0182 28.3198 35.1476 28.3198 34.4289C28.3198 34.3156 28.3198 34.2022 28.2845 34.0509C28.3865 34.3522 28.4552 34.7322 28.4552 35.1482C28.4552 35.6789 28.3538 36.2836 28.1505 36.8142C28.3865 36.5496 28.5565 36.3589 28.6238 35.8296V36.0182C28.6238 36.5876 28.5232 37.0036 28.3872 37.3429C28.4218 37.4956 28.4558 37.5702 28.4558 37.6842C28.4558 37.8356 28.3205 38.1762 28.0838 38.6689C27.8125 39.2369 27.6432 39.5776 27.6092 39.7276C27.4412 40.3722 27.3385 41.5829 27.3385 43.4002V47.2616C28.6578 47.3369 29.5712 47.4129 30.0118 47.4129H30.3492C31.8045 47.4129 32.9532 46.9962 34.7452 45.8989C33.9338 46.8836 32.4118 47.7542 31.0598 48.2836C32.4118 48.0576 33.5632 47.6022 34.9838 46.5436C34.3392 47.4902 32.8185 48.5489 31.6025 49.0789C32.7172 48.9276 34.0032 48.2842 35.0165 47.4516C34.2725 48.3602 33.0558 49.3069 32.0072 49.8369V49.9116H32.0065ZM18.6478 39.9936C18.6825 39.8036 18.8518 39.4262 19.1212 39.2369C19.1892 39.2369 19.2565 39.1989 19.3252 39.1989C19.5958 39.1989 19.8665 39.2742 20.1018 39.3122C20.4065 39.3876 20.6438 39.3876 20.8118 39.3876C20.9818 39.3876 21.2172 39.3876 21.5558 39.3502C21.8945 39.3116 22.1305 39.2742 22.2998 39.2742C23.1458 39.2742 23.7872 39.5389 24.2278 40.1076C24.1265 40.2962 23.9912 40.5609 23.7878 40.8262C23.5198 41.2042 23.2458 41.4696 22.9765 41.5829C22.8752 41.6589 22.5045 41.8109 21.9285 41.9996C21.2178 42.2636 20.6432 42.5676 20.2032 43.0216C19.1565 43.0216 18.6138 42.3782 18.6138 41.0909C18.1065 41.0149 17.6665 40.9769 17.4985 40.5222C17.6325 40.7116 17.7678 40.7502 17.9032 40.7502C18.1065 40.7502 18.3092 40.5976 18.5125 40.5602C17.9032 40.2582 17.3965 39.7269 17.3965 39.1229V38.9702C17.5985 39.6522 18.1398 39.9922 18.5478 39.9922H18.6478V39.9936ZM23.2812 46.3156C23.0445 46.5056 22.5045 46.6189 21.4212 46.9209C20.7785 47.1096 20.1692 47.6016 19.5958 47.9429C18.7825 47.8676 18.3098 47.4129 17.9038 46.4289C17.8698 46.3902 17.8698 46.3149 17.8698 46.2769C17.8698 45.7469 18.4118 44.6869 18.8518 44.1569C19.6632 43.9682 21.3872 43.8922 22.4018 43.8922C23.1458 43.8922 23.7878 44.1956 24.0912 44.8762C24.0912 45.2929 23.7205 45.9369 23.2812 46.3156Z" fill="#E50012"/>
<path d="M65.9999 58.887C65.9999 60.975 64.3079 62.6663 62.2199 62.6663H5.11325C3.02525 62.6663 1.33325 60.975 1.33325 58.887V5.11301C1.33325 3.02567 3.02525 1.33301 5.11325 1.33301H62.2199C64.3079 1.33301 65.9999 3.02567 65.9999 5.11301V58.887Z" stroke="#E50012" stroke-width="4"/>
</g>
<defs>
<clipPath id="clip0_61_265">
<rect width="67.3333" height="64" fill="white"/>
</clipPath>
</defs>
</svg>
