<svg width="736" height="72" viewBox="0 0 736 72" fill="none" xmlns="http://www.w3.org/2000/svg">
<g clip-path="url(#clip0_41_262)">
<path d="M35.7015 71.403C55.4189 71.403 71.403 55.4189 71.403 35.7015C71.403 15.9841 55.4189 0 35.7015 0C15.9841 0 0 15.9841 0 35.7015C0 55.4189 15.9841 71.403 35.7015 71.403Z" fill="#231815"/>
<path d="M47.2708 42.5916C46.0303 41.1594 43.7411 40.1107 40.9898 40.4151C40.4935 40.4716 40.0087 40.5279 39.5351 40.652C38.7344 40.855 37.9789 41.2496 37.1782 41.4075C36.8513 41.4752 36.5692 41.509 36.2873 41.5315C36.0054 41.509 35.7123 41.4752 35.3966 41.4075C34.5846 41.2496 33.8291 40.855 33.0397 40.652C32.5661 40.5279 32.0813 40.4603 31.5963 40.4151C28.8449 40.1107 26.5445 41.1594 25.3153 42.5916C23.2292 44.9934 23.342 48.8838 23.872 51.8157C24.3794 54.6237 26.2062 57.1383 27.3563 59.9123C28.157 61.8181 29.3975 64.5356 31.1454 66.0016C31.585 66.3624 31.9684 66.6895 32.5211 66.8925C33.0623 67.0954 33.4908 67.0954 33.9531 66.6669C34.7313 65.9565 34.4267 64.6258 34.438 63.7238C34.438 63.2501 34.4493 62.1225 34.4944 61.6601C34.5621 60.8482 34.5734 60.0589 34.9003 59.3033C35.1259 58.7959 35.4416 58.1419 36.1183 58.0404C36.1633 58.0404 36.2198 58.0404 36.2761 58.0404C36.2761 58.0404 36.2873 58.0404 36.2987 58.0404C36.2987 58.0404 36.2987 58.0404 36.3212 58.0404C36.3212 58.0404 36.434 58.0404 36.4792 58.0404C37.167 58.1419 37.4714 58.7959 37.697 59.3033C38.0239 60.0589 38.0352 60.837 38.1029 61.6601C38.1368 62.1225 38.1481 63.2501 38.1593 63.7238C38.1593 64.6146 37.8774 65.9453 38.6442 66.6669C39.1065 67.0954 39.7605 67.0842 40.3018 66.8925C40.8544 66.6895 41.2378 66.3737 41.6776 66.0016C43.4254 64.5356 44.4403 61.8181 45.241 59.9123C46.4024 57.1383 48.218 54.6237 48.7367 51.8157C49.2666 48.8838 49.3795 44.9934 47.2933 42.5916H47.2708Z" fill="white"/>
<path d="M55.8865 32.6794H62.9344L63.6222 31.7435L63.2163 28.3944H57.0141L57.1833 28.3717L56.8676 27.1764L55.2212 27.6727L54.4882 22.2035C54.5559 22.2035 54.6122 22.2035 54.6799 22.1922C57.6795 21.978 60.679 21.7074 63.6674 21.369C63.8703 20.8504 64.0733 20.3204 64.2762 19.8016C63.6222 19.8918 62.9682 19.9708 62.3141 20.0385C62.9794 19.9482 63.6334 19.8693 64.2875 19.7791C64.4116 19.0574 64.5243 18.3356 64.6483 17.6253C64.8852 17.287 65.1221 16.9374 65.3588 16.599C65.2686 16.599 65.1896 16.5765 65.0994 16.5653C65.1784 16.554 65.2686 16.5427 65.3475 16.5315C65.6971 15.1218 66.0467 13.7123 66.3737 12.3027C66.4076 12.3817 54.9506 15.0655 51.0263 15.4037C47.1472 15.9112 38.7237 16.2721 38.7237 16.2269C37.393 16.2496 36.0737 16.2496 34.743 16.2496C32.5215 16.3398 23.0831 15.7985 20.3767 15.4037C16.4525 15.0768 4.99555 12.3929 5.02937 12.3027C5.3564 13.7123 5.70597 15.1218 6.05554 16.5315C6.13447 16.5427 6.22469 16.554 6.30363 16.5653C6.22469 16.5653 6.13447 16.5878 6.04427 16.599C6.28107 16.9374 6.51788 17.2757 6.75469 17.6139C6.86745 18.3356 6.99148 19.0574 7.11553 19.7791C7.76957 19.8693 8.43488 19.9595 9.08892 20.0385C8.43488 19.9595 7.78084 19.8806 7.12681 19.8016C7.32978 20.3316 7.53276 20.8504 7.73574 21.369C10.724 21.7074 13.7236 21.9893 16.7232 22.1922C17.2306 22.2374 17.7493 22.2824 18.2567 22.3276L17.5464 27.6839L15.9225 27.1877L15.6067 28.3831L15.7759 28.4057H8.97616L8.55893 31.7547L9.24679 32.6907H16.881L12.7087 63.983L18.1327 68.6628L21.6849 32.6907H51.0827L54.5108 69.4183L60.0589 63.983L55.8752 32.6907L55.8865 32.6794ZM34.4837 28.3944H23.8274L23.5793 27.4358L22.1697 27.7629L22.6658 22.6208C26.6014 22.8575 30.5369 22.9929 34.4837 23.0154V28.3944ZM49.2109 27.4358L48.9627 28.3944H38.9492V22.9929C42.6705 22.9365 46.3804 22.7787 50.1016 22.5306L50.6091 27.7515L49.2109 27.4246V27.4358ZM20.0723 17.8958C15.8548 17.6366 11.6374 17.2418 7.43127 16.7119C7.43127 16.7006 7.43127 16.6893 7.43127 16.6667C11.6713 17.208 15.9113 17.6139 20.1625 17.8958C30.503 18.674 40.8887 18.674 51.2294 17.8958C55.4806 17.6139 59.7318 17.208 63.9718 16.6667C63.9718 16.678 63.9718 16.6893 63.9718 16.7119C59.7656 17.2305 55.5483 17.6252 51.3308 17.8958C40.9226 18.6852 30.4692 18.6852 20.061 17.8958H20.0723Z" fill="white"/>
<path d="M439.627 15.4375L426.478 45.0609H412.09L416.127 35.8931H409.767L410.95 29.1949H419.092L422.272 22.102H409.395L402.876 34.2243H388.487L396.844 15.4375H439.649H439.627Z" fill="#231815"/>
<path d="M291.182 27.4584H337.281L336.096 34.134H319.926L315.078 45.0723H300.689L305.537 34.134H290.01L291.193 27.4584H291.182ZM293.292 15.4263L339.378 15.4488L338.194 22.1133H292.096L293.279 15.415L293.292 15.4263Z" fill="#231815"/>
<path d="M261.164 25.4056H241.159L242.343 18.7186L262.348 18.7411L261.164 25.4056ZM362.044 25.4056H342.039L343.223 18.7186L363.228 18.7411L362.044 25.4056ZM273.128 15.4258L287.518 15.4483L269.137 45.0718H254.737L273.118 15.4258H273.128Z" fill="#231815"/>
<path d="M374.133 15.4258L388.522 15.4483L370.141 45.0718H355.752L374.133 15.4258Z" fill="#231815"/>
<path d="M634.959 45.0718H593.834L595.018 38.4074H636.154L634.97 45.0718H634.959ZM638.996 22.1241H597.859L599.044 15.4258L640.169 15.4483L638.984 22.1128L638.996 22.1241Z" fill="#231815"/>
<path d="M329.309 12.1678H322.542L323.669 5.63867H330.447L329.32 12.1678H329.309ZM340.866 5.63867L339.739 12.1678H332.95L334.078 5.63867H340.866Z" fill="#231815"/>
<path d="M171.831 22.1241L169.464 27.4579H183.853L182.668 34.1335H166.498L161.649 45.0718H147.26L152.109 34.1335H136.581L137.765 27.4579H155.075L157.442 22.1241H138.689L139.874 15.4258L185.961 15.4483L184.777 22.1128H171.843L171.831 22.1241Z" fill="#231815"/>
<path d="M98.6698 15.4258L113.059 15.4483L94.6779 45.0718H80.2891L98.6698 15.4258ZM127.188 26.2626L132.206 45.0718H117.817L112.811 26.2626H127.199H127.188Z" fill="#231815"/>
<path d="M735.455 15.4375L722.306 45.0609H707.918L718.112 22.0907H704.095L698.705 34.2243H684.315L692.672 15.4375H735.466H735.455Z" fill="#231815"/>
<path d="M541.635 15.4375L528.486 45.0609H514.097L524.291 22.0907H510.275L504.884 34.2243H490.495L498.852 15.4375H541.657H541.635Z" fill="#231815"/>
<path d="M238.814 15.4375L221.188 38.2724H212.134L215.743 45.0609H201.354L192.998 29.3414H207.387L209.969 34.1791L219.239 22.1133H192.062L193.245 15.4488H238.792L238.814 15.4375Z" fill="#231815"/>
<path d="M560.207 27.5486H564.199L563.014 34.2355H544.633L547.971 15.415L562.371 15.4488L560.218 27.5486H560.207ZM581.011 45.0723H566.566L579.771 15.4263L594.171 15.4601L581.011 45.0835V45.0723Z" fill="#231815"/>
<path d="M644.464 24.4473L652.301 24.4698L650.012 37.5393H642.142L644.464 24.4473ZM660.894 37.5393H653.035L655.38 24.4473L663.184 24.4698L660.905 37.5393H660.894ZM671.089 24.4473L683.83 24.4698L671.043 45.0833H658.301L671.089 24.4585V24.4473Z" fill="#231815"/>
<path d="M447.125 26.2626H461.514L449.821 45.0718H435.432L447.125 26.2626ZM486.098 45.0718H463.341L468.574 15.4258L482.963 15.4483L478.913 38.3849H487.27L486.085 45.0718H486.098Z" fill="#231815"/>
<path d="M135.984 53.9922H138.533V64.7162H135.984V60.3859H132.488V64.7162H129.939V53.9922H132.488V58.0517H135.984V53.9922Z" fill="#231815" stroke="#231815" stroke-width="0.283988"/>
<path d="M158.435 64.7158L163.543 53.1123L168.709 64.7158H165.946L165.539 63.6446H161.548L161.141 64.7158H158.424H158.435ZM162.483 61.4005L164.525 61.378L163.532 58.9987L162.472 61.4005H162.483Z" fill="#231815" stroke="#231815" stroke-width="0.283988"/>
<path d="M194.385 62.8781C193.708 63.4757 192.998 63.9381 192.276 64.2539C191.554 64.5696 190.809 64.7275 190.054 64.7275C189.299 64.7275 188.52 64.5921 187.822 64.3102C187.134 64.0283 186.525 63.6562 186.006 63.1713C185.487 62.6977 185.082 62.1226 184.788 61.4685C184.496 60.8145 184.338 60.1154 184.338 59.3485C184.338 58.5817 184.483 57.8938 184.788 57.251C185.082 56.597 185.498 56.0332 186.017 55.5484C186.536 55.0748 187.145 54.6914 187.845 54.4095C188.533 54.1276 189.277 53.9922 190.078 53.9922C191.588 53.9922 193.02 54.6124 194.374 55.8528L192.546 57.4992C192.118 57.1383 191.701 56.8677 191.283 56.676C190.867 56.473 190.472 56.3828 190.089 56.3828C189.649 56.3828 189.243 56.4618 188.86 56.6197C188.475 56.7774 188.137 56.9918 187.845 57.2624C187.551 57.5331 187.326 57.8488 187.157 58.1984C186.987 58.5592 186.908 58.9426 186.908 59.3485C186.908 59.7545 186.987 60.1604 187.157 60.5213C187.315 60.8822 187.54 61.1978 187.822 61.4685C188.103 61.7391 188.442 61.9422 188.825 62.1C189.208 62.2466 189.626 62.3256 190.078 62.3256C190.461 62.3256 190.855 62.2354 191.283 62.0324C191.712 61.8406 192.129 61.5587 192.557 61.1978L194.407 62.8555L194.385 62.8781Z" fill="#231815" stroke="#231815" stroke-width="0.283988"/>
<path d="M217.411 53.9922H219.96V64.7162H217.411V60.3859H213.917V64.7162H211.368V53.9922H213.917V58.0517H217.411V53.9922Z" fill="#231815" stroke="#231815" stroke-width="0.283988"/>
<path d="M237.597 53.9922H240.145V64.7162H237.597V53.9922Z" fill="#231815" stroke="#231815" stroke-width="0.283988"/>
<path d="M263.228 60.2506C263.646 59.7094 264.074 59.1569 264.535 58.5704C264.998 57.9841 265.449 57.3978 265.911 56.8113C266.374 56.225 266.824 55.6385 267.265 55.0634C267.716 54.4884 268.144 53.9358 268.55 53.4058V64.7274H266.002V60.9273L263.116 64.6372L260.262 61.0062V64.7387H257.748V53.3945L263.216 60.262L263.228 60.2506Z" fill="#231815" stroke="#231815" stroke-width="0.283988"/>
<path d="M285.093 64.7158L290.201 53.1123L295.367 64.7158H292.604L292.198 63.6446H288.206L287.799 64.7158H285.082H285.093ZM289.153 61.4005L291.194 61.378L290.201 58.9987L289.141 61.4005H289.153Z" fill="#231815" stroke="#231815" stroke-width="0.283988"/>
<path d="M318.573 53.992H321.088V65.1219L314.187 59.1906V64.716H311.673V53.7891L318.573 59.5852V53.992Z" fill="#231815" stroke="#231815" stroke-width="0.283988"/>
<path d="M376.365 59.4952C376.365 60.3183 376.231 61.0513 375.948 61.7054C375.677 62.3594 375.294 62.9119 374.799 63.3517C374.301 63.8028 373.704 64.141 372.994 64.3779C372.295 64.6146 371.517 64.7275 370.671 64.7275H366.556V53.9922H370.671C371.517 53.9922 372.295 54.1274 372.983 54.3981C373.682 54.6687 374.28 55.0408 374.775 55.5258C375.283 56.0107 375.666 56.5858 375.937 57.2624C376.207 57.939 376.354 58.6832 376.354 59.4839L376.365 59.4952ZM373.817 59.4387C373.817 59.0553 373.761 58.6832 373.637 58.3224C373.524 57.9615 373.343 57.6458 373.129 57.3639C372.904 57.082 372.633 56.8564 372.317 56.676C372.002 56.4955 371.64 56.4053 371.223 56.3828C371.167 56.3828 371.099 56.3828 371.032 56.3828C370.952 56.3828 370.851 56.3828 370.705 56.3828H369.059V62.3706H371.257C371.348 62.3706 371.437 62.3706 371.539 62.3369C371.64 62.3143 371.731 62.2917 371.822 62.2692C372.159 62.1789 372.453 62.0324 372.689 61.852C372.938 61.6716 373.14 61.446 373.31 61.1978C373.479 60.9385 373.603 60.668 373.682 60.3634C373.771 60.059 373.806 59.7658 373.806 59.45L373.817 59.4387Z" fill="#231815" stroke="#231815" stroke-width="0.283988"/>
<path d="M397.158 62.3373H402.683V64.7279H394.609V54.0039H402.683V56.3945H397.158V58.413H402.582V60.6683H397.158V62.3373Z" fill="#231815" stroke="#231815" stroke-width="0.283988"/>
<path d="M428.338 53.992H430.854V65.1219L423.953 59.1906V64.716H421.438V53.7891L428.338 59.5852V53.992Z" fill="#231815" stroke="#231815" stroke-width="0.283988"/>
<path d="M449.955 53.9922H457.759V56.3828H455.177V64.7162H452.629V56.3828H449.944V53.9922H449.955Z" fill="#231815" stroke="#231815" stroke-width="0.283988"/>
<path d="M474.753 64.7168L479.861 53.1133L485.027 64.7168H482.264L481.858 63.6456H477.866L477.46 64.7168H474.742H474.753ZM478.814 61.4015L480.854 61.379L479.861 58.9996L478.803 61.4015H478.814Z" fill="#231815" stroke="#231815" stroke-width="0.283988"/>
<path d="M504.929 62.3819H509.552V64.7162H502.437V53.9922H504.929V62.3819Z" fill="#231815" stroke="#231815" stroke-width="0.283988"/>
<path d="M556.328 62.8781C555.64 63.4757 554.94 63.9381 554.23 64.2539C553.508 64.5696 552.763 64.7275 552.008 64.7275C551.253 64.7275 550.474 64.5921 549.786 64.3102C549.087 64.0283 548.49 63.6562 547.971 63.1713C547.452 62.6977 547.047 62.1226 546.753 61.4685C546.45 60.8145 546.303 60.1154 546.303 59.3485C546.303 58.5817 546.45 57.8938 546.753 57.251C547.047 56.597 547.464 56.0332 547.982 55.5484C548.501 55.0748 549.111 54.6914 549.81 54.4095C550.498 54.1276 551.242 53.9922 552.042 53.9922C553.553 53.9922 554.985 54.6124 556.328 55.8528L554.5 57.4992C554.072 57.1383 553.654 56.8677 553.237 56.676C552.821 56.473 552.426 56.3828 552.042 56.3828C551.603 56.3828 551.197 56.4618 550.813 56.6197C550.43 56.7774 550.091 56.9918 549.799 57.2624C549.505 57.5331 549.28 57.8488 549.111 58.1984C548.942 58.5592 548.862 58.9426 548.862 59.3485C548.862 59.7545 548.942 60.1604 549.098 60.5213C549.269 60.8822 549.483 61.1978 549.764 61.4685C550.046 61.7391 550.385 61.9422 550.768 62.1C551.151 62.2466 551.569 62.3256 552.008 62.3256C552.391 62.3256 552.798 62.2354 553.215 62.0324C553.644 61.8406 554.061 61.5587 554.489 61.1978L556.328 62.8555V62.8781Z" fill="#231815" stroke="#231815" stroke-width="0.283988"/>
<path d="M579.162 62.3819H583.786V64.7162H576.659V53.9922H579.151V62.3819H579.162Z" fill="#231815" stroke="#231815" stroke-width="0.283988"/>
<path d="M605.199 53.9922H607.748V64.7162H605.199V53.9922Z" fill="#231815" stroke="#231815" stroke-width="0.283988"/>
<path d="M634.496 53.992H637.01V65.1219L630.109 59.1906V64.716H627.595V53.7891L634.496 59.5852V53.992Z" fill="#231815" stroke="#231815" stroke-width="0.283988"/>
<path d="M656.88 53.9922H659.428V64.7162H656.88V53.9922Z" fill="#231815" stroke="#231815" stroke-width="0.283988"/>
<path d="M687.54 62.8781C686.854 63.4757 686.154 63.9381 685.433 64.2539C684.71 64.5696 683.966 64.7275 683.211 64.7275C682.421 64.7275 681.677 64.5921 680.978 64.3102C680.279 64.0283 679.682 63.6562 679.163 63.1713C678.644 62.6977 678.237 62.1226 677.945 61.4685C677.64 60.8145 677.493 60.1154 677.493 59.3485C677.493 58.5817 677.64 57.8938 677.945 57.251C678.237 56.597 678.655 56.0332 679.174 55.5484C679.693 55.0748 680.301 54.6914 681 54.4095C681.688 54.1276 682.432 53.9922 683.233 53.9922C684.745 53.9922 686.166 54.6124 687.518 55.8528L685.692 57.4992C685.264 57.1383 684.846 56.8677 684.429 56.676C684.011 56.473 683.617 56.3828 683.233 56.3828C682.793 56.3828 682.387 56.4618 682.004 56.6197C681.621 56.7774 681.283 56.9918 680.989 57.2624C680.697 57.5331 680.47 57.8488 680.301 58.1984C680.132 58.5592 680.054 58.9426 680.054 59.3485C680.054 59.7545 680.132 60.1604 680.29 60.5213C680.448 60.8822 680.673 61.1978 680.967 61.4685C681.249 61.7391 681.587 61.9422 681.971 62.1C682.354 62.2466 682.771 62.3256 683.222 62.3256C683.605 62.3256 684 62.2354 684.429 62.0324C684.857 61.8406 685.275 61.5587 685.703 61.1978L687.54 62.8555V62.8781Z" fill="#231815" stroke="#231815" stroke-width="0.283988"/>
</g>
<defs>
<clipPath id="clip0_41_262">
<rect width="736" height="71.403" fill="white"/>
</clipPath>
</defs>
</svg>
