<svg width="176" height="74" viewBox="0 0 176 74" fill="none" xmlns="http://www.w3.org/2000/svg">
<path d="M0.0958119 28.7765C-0.442928 42.2294 5.50181 57.7994 34.9154 58.5171C41.9964 58.6898 63.207 57.1685 88.9359 54.7797C100.776 53.6804 119.816 55.3028 126.556 56.2862C132.687 57.1809 139.152 57.8616 142.847 62.8394C145.977 67.0546 141.077 72.104 134.293 73.8128C151.433 71.5779 151.919 60.394 153.16 60.001C169.072 54.9622 175.34 44.907 175.705 35.809C176.176 24.0392 172.42 6.79542 149.98 2.9413C126.336 -1.12002 110.663 9.19037 91.2813 8.41421C73.0958 7.68594 54.5228 0.641797 39.9861 0.890475C10.0119 1.4037 0.58653 16.5228 0.0958119 28.7765Z" fill="#E4E9EA"/>
</svg>
