<svg width="196" height="82" viewBox="0 0 196 82" fill="currentColor" xmlns="http://www.w3.org/2000/svg" id="sc-ttl-bubbule-svg" class="sc-ttl-bubble-svg">
<path d="M0.439825 31.5889C-0.158775 46.5365 6.44648 63.8366 39.1283 64.634C46.996 64.8259 70.5634 63.1355 99.151 60.4812C112.307 59.2598 133.463 61.0625 140.951 62.1552C147.764 63.1493 154.946 63.9056 159.052 69.4366C162.53 74.1201 157.085 79.7305 149.548 81.6292C168.592 79.146 169.132 66.7194 170.512 66.2827C188.191 60.6841 195.156 49.5116 195.561 39.4028C196.085 26.3252 191.912 7.16543 166.978 2.88308C140.706 -1.6295 123.292 9.82649 101.757 8.96408C81.5509 8.1549 60.9142 0.328072 44.7624 0.60438C11.4577 1.17463 0.985067 17.9737 0.439825 31.5889Z" fill="white" id="sc-ttl-bubble-svg-path" />
</svg>
