<svg width="273" height="90" viewBox="0 0 273 90" fill="none" xmlns="http://www.w3.org/2000/svg">
<path d="M0.548597 34.4307C-0.110239 50.8824 7.15973 69.9234 43.1302 70.8011C51.7897 71.0123 103.112 69.1518 134.577 66.2305C149.057 64.8862 204.071 66.8702 212.313 68.0728C219.811 69.167 227.716 69.9994 232.236 76.0869C236.063 81.2417 230.071 87.4167 221.775 89.5064C242.735 86.7734 243.33 73.0964 244.848 72.6157C264.307 66.4537 271.972 54.157 272.418 43.0309C272.994 28.6373 268.402 7.54956 240.959 2.83629C212.044 -2.13038 161.147 10.4784 137.445 9.52921C115.206 8.6386 67.1085 0.0241737 49.3313 0.328287C12.6753 0.955924 1.14871 19.4454 0.548597 34.4307Z" fill="#E4E9EA"/>
</svg>
