<svg width="55" height="40" viewBox="0 0 55 40" fill="none" xmlns="http://www.w3.org/2000/svg">
<path d="M24.8664 25.6491C24.8664 29.5835 23.8213 32.7254 21.7329 35.0749C19.644 37.4263 16.7018 38.6 12.9071 38.6C9.1463 38.6 6.2224 37.4165 4.13344 35.0494C2.04448 32.6824 1 29.5489 1 25.6491V14.0031C1 10.07 2.04448 6.91894 4.13344 4.55058C6.2224 2.18418 9.14695 1 12.9071 1C16.6672 1 19.5996 2.17569 21.7062 4.52512C23.8121 6.87521 24.8657 10.0341 24.8657 14.0038V25.6491H24.8664ZM22.5679 26.2764V13.3758C22.5679 10.2783 21.7147 7.78847 20.0089 5.90841C18.3031 4.02899 15.9361 3.08896 12.9071 3.08896C9.91203 3.08896 7.55346 4.03813 5.83072 5.93517C4.10668 7.83286 3.24498 10.3135 3.24498 13.3758V26.2764C3.24498 29.34 4.09819 31.8115 5.80396 33.6916C7.50973 35.571 9.87743 36.5117 12.9071 36.5117C15.9008 36.5117 18.2594 35.5632 19.9834 33.6648C21.7068 31.7678 22.5679 29.3048 22.5679 26.2764Z" fill="white" stroke="white" stroke-miterlimit="10"/>
<path d="M54.3732 27.1115C54.3732 30.5935 53.3104 33.2733 51.1869 35.154C49.0633 37.0334 46.1557 37.9741 42.4661 37.9741H32.1257V35.9889H43.7195C46.0872 35.9889 48.0802 35.2147 49.6991 33.6643C51.3181 32.1165 52.1275 30.1222 52.1275 27.6859C52.1275 24.9357 51.3096 22.7684 49.673 21.1834C48.0364 19.5997 45.704 18.8065 42.675 18.8065H36.1992V17.3965L48.4719 5.54229C49.0985 4.95085 49.4119 4.44559 49.4119 4.02845C49.4119 3.6805 49.2369 3.50555 48.889 3.50555H32.3869V1.62549H48.889C49.9674 1.62549 50.7084 1.7913 51.1085 2.12227C51.508 2.45389 51.7091 2.9337 51.7091 3.56169C51.7091 4.60879 51.2769 5.51553 50.4113 6.28257L39.4586 16.7189H43.3173C46.7596 16.7189 49.4615 17.685 51.4264 19.6167C53.3901 21.5503 54.3732 24.0479 54.3732 27.1115Z" fill="white" stroke="white" stroke-miterlimit="10"/>
</svg>
