<svg width="42" height="40" viewBox="0 0 42 40" fill="none" xmlns="http://www.w3.org/2000/svg">
<path d="M24.8664 25.6491C24.8664 29.5835 23.8212 32.7254 21.7329 35.0749C19.644 37.4263 16.7018 38.6 12.9071 38.6C9.1463 38.6 6.2224 37.4165 4.13344 35.0494C2.04448 32.6824 1 29.5489 1 25.6491V14.0031C1 10.07 2.04448 6.91894 4.13344 4.55058C6.2224 2.18418 9.14695 1 12.9071 1C16.6672 1 19.5996 2.17569 21.7062 4.52512C23.8121 6.8752 24.8657 10.0341 24.8657 14.0038L24.8664 25.6491ZM22.5685 26.2764V13.3764C22.5685 10.2783 21.7153 7.78847 20.0095 5.90841C18.3038 4.02899 15.9367 3.08896 12.9077 3.08896C9.91268 3.08896 7.55411 4.03813 5.83137 5.93517C4.10733 7.83286 3.24563 10.3135 3.24563 13.3764V26.2764C3.24563 29.34 4.09884 31.8115 5.80461 33.6916C7.51038 35.571 9.87808 36.5117 12.9077 36.5117C15.9015 36.5117 18.26 35.5632 19.9841 33.6648C21.7075 31.7678 22.5685 29.3048 22.5685 26.2764Z" fill="white" stroke="white" stroke-miterlimit="10"/>
<path d="M40.5335 37.9746H38.549V3.50604H32.4917L32.9611 1.62598H40.5342L40.5335 37.9746Z" fill="white" stroke="white" stroke-miterlimit="10"/>
</svg>
