<svg width="56" height="40" viewBox="0 0 56 40" fill="none" xmlns="http://www.w3.org/2000/svg">
<path d="M24.867 25.6491C24.867 29.5835 23.8226 32.7254 21.7336 35.0749C19.6446 37.4263 16.7018 38.6 12.9071 38.6C9.14695 38.6 6.2224 37.4165 4.1341 35.0494C2.04514 32.6817 1 29.5489 1 25.6491V14.0031C1 10.07 2.04514 6.91894 4.1341 4.55058C6.2224 2.18418 9.1476 1 12.9071 1C16.6666 1 19.6002 2.17569 21.7068 4.52512C23.8134 6.87521 24.8664 10.0341 24.8664 14.0038L24.867 25.6491ZM22.5698 26.2764V13.3758C22.5698 10.2783 21.7153 7.78847 20.0109 5.90841C18.3044 4.02899 15.9374 3.08896 12.9077 3.08896C9.91334 3.08896 7.55542 4.03813 5.83138 5.93517C4.10798 7.83286 3.24629 10.3135 3.24629 13.3758V26.2764C3.24629 29.34 4.0995 31.8115 5.80592 33.6916C7.51038 35.571 9.87874 36.5117 12.9077 36.5117C15.9015 36.5117 18.2607 35.5632 19.9841 33.6648C21.7081 31.7678 22.5698 29.3048 22.5698 26.2764Z" fill="white" stroke="white" stroke-miterlimit="10"/>
<path d="M55.053 37.9746H33.85C33.1196 37.9746 32.5614 37.7311 32.1789 37.2428C31.795 36.7558 31.6044 36.1122 31.6044 35.3112C31.6044 34.1969 33.8781 31.9604 38.4268 28.5997C42.9749 25.2404 46.5 22.421 49.0015 20.1401C51.5037 17.8605 52.7551 15.4138 52.7551 12.8026C52.7551 9.80889 51.9365 7.44118 50.3 5.70016C48.6634 3.95914 46.3309 3.08896 43.3019 3.08896C40.2723 3.08896 37.9398 3.94282 36.3033 5.64794C34.6667 7.35436 33.8487 9.66919 33.8487 12.5937C33.8487 14.6487 34.6406 16.5373 36.2256 18.26C37.8093 19.9841 39.7501 20.8458 42.0486 20.8458C42.2575 20.8458 42.4664 20.8458 42.6746 20.8458C42.9879 20.8458 43.2145 20.8458 43.3542 20.8458H43.4586C43.0056 21.2068 42.5003 21.5573 41.9441 21.8988C41.3866 22.2415 40.9519 22.4125 40.6385 22.4125C38.7924 22.4125 36.8262 21.5071 34.7372 19.6969C32.6482 17.8866 31.6038 15.4843 31.6038 12.4893C31.6038 8.9387 32.613 6.13623 34.6328 4.08187C36.6519 2.02816 39.5425 1 43.3019 1C46.6782 1 49.4813 1.93938 51.71 3.8201C53.938 5.70016 55.0524 8.69456 55.0524 12.8026C55.0524 15.7272 53.6345 18.5734 50.8007 21.3413C47.9669 24.1091 44.4326 27.0161 40.1992 30.062C35.9658 33.1093 33.8487 34.8927 33.8487 35.4156C33.8487 35.7283 34.0576 35.885 34.4761 35.885H55.0524L55.053 37.9746Z" fill="white" stroke="white" stroke-miterlimit="10"/>
</svg>
