<svg width="12" height="17" viewBox="0 0 12 17" fill="none" xmlns="http://www.w3.org/2000/svg">
<path d="M3.70901 5.448C4.50401 4.97775 5.15048 4.54427 5.37473 4.41377C5.59598 4.27727 5.58848 3.93902 5.39798 3.62252C5.20898 3.30302 3.63851 0.668232 3.63851 0.668232C3.39026 0.25723 3.12245 -0.162028 2.73845 0.0629733C2.35895 0.290975 2.07325 0.459717 1.08774 1.04772C0.100737 1.63347 -1.20203 4.93201 2.22099 10.6763C5.64326 16.4228 9.1653 16.8436 10.1501 16.2563C11.1341 15.6698 11.422 15.5026 11.8 15.2731C12.1825 15.0451 11.9418 14.6116 11.6958 14.1945C11.6958 14.1945 10.1253 11.5628 9.93701 11.241C9.74876 10.923 9.45252 10.7566 9.22976 10.8863C9.00701 11.0183 8.32155 11.3873 7.52879 11.8591C6.73304 12.3301 5.84875 11.1353 4.69824 9.1988C3.54623 7.26454 2.91475 5.91825 3.70901 5.448Z" fill="#333333"/>
</svg>
